<svg width="520" height="520" viewBox="0 0 520 520" fill="none" xmlns="http://www.w3.org/2000/svg">
<path d="M400.704 519.481H179.891V359.281H334.358H334.569L334.716 359.13L352.403 340.938L353.228 340.09H352.044H179.91V179.891H352.044H353.228L352.403 179.042L334.716 160.851L334.569 160.699H334.358H161.199H160.699V161.199V519.5H0.5V0.5H400.704L519.481 119.277V400.704L400.704 519.481Z" fill="#001141" stroke="#4D5EFF"/>
<path d="M260 520C260 508.623 257.768 497.343 253.399 486.84C249.05 476.317 242.663 466.765 234.606 458.728C226.549 450.671 216.997 444.303 206.494 439.934C195.971 435.585 184.711 433.333 173.334 433.333C161.957 433.333 150.677 431.101 140.174 426.732C129.651 422.383 120.099 415.996 112.061 407.939C104.004 399.882 97.6362 390.33 93.268 379.827C88.9191 369.304 86.667 358.044 86.667 346.667C86.667 335.29 88.8997 324.01 93.268 313.507C97.6168 302.984 104.004 293.432 112.061 285.394C120.118 277.357 129.67 270.969 140.174 266.601C150.696 262.252 161.957 260 173.334 260C184.711 260 195.99 262.233 206.494 266.601C217.016 270.95 226.568 277.337 234.606 285.394C242.663 293.451 249.031 303.003 253.399 313.507C257.748 324.029 260 335.29 260 346.667C260 358.044 262.233 369.323 266.601 379.827C270.95 390.349 277.338 399.901 285.395 407.939C293.452 415.996 303.004 422.364 313.507 426.732C324.03 431.081 335.29 433.333 346.667 433.333C358.044 433.333 369.324 431.101 379.827 426.732C390.35 422.383 399.902 415.996 407.939 407.939C415.996 399.882 422.364 390.33 426.733 379.827C431.082 369.304 433.334 358.044 433.334 346.667C433.334 335.29 431.101 324.01 426.733 313.507C422.384 302.984 415.996 293.432 407.939 285.394C399.882 277.337 390.33 270.969 379.827 266.601C369.304 262.252 358.044 260 346.667 260C335.29 260 324.01 257.767 313.507 253.399C302.984 249.05 293.432 242.663 285.395 234.606C277.338 226.549 270.97 216.997 266.601 206.493C262.252 195.971 260 184.71 260 173.333C260 161.956 262.233 150.677 266.601 140.173C270.95 129.651 277.338 120.099 285.395 112.061C293.452 104.023 303.004 97.6359 313.507 93.2676C324.03 88.9188 335.29 86.6667 346.667 86.6667C358.044 86.6667 369.324 84.434 379.827 80.0657C390.35 75.7168 399.902 69.3294 407.939 61.2724C415.996 53.2153 422.364 43.6634 426.733 33.1601C431.082 22.6374 433.334 11.3769 433.334 0" stroke="#4D5EFF" stroke-width="36"/>
<path d="M351.298 519.5H179.891V359.949L351.298 519.5Z" fill="#001141" stroke="#4D5EFF"/>
<path d="M161.406 160.699L1.20711 0.5H400.704L519.006 118.783L334.302 160.699H161.406Z" fill="#001141" stroke="#4D5EFF"/>
<path d="M337.49 340.09H179.891V180.608L337.49 340.09Z" fill="#001141" stroke="#4D5EFF"/>
</svg>
