<svg width="520" height="520" viewBox="0 0 520 520" fill="none" xmlns="http://www.w3.org/2000/svg">
<path d="M119.277 0.5H519.481V340.09H359.281V161.199V160.699H358.781H185.623H185.416L185.269 160.846L160.826 185.289L160.68 185.435V185.642V358.801V359.301H161.18H519.481V519.5H0.5V119.296L119.277 0.5Z" fill="#001141" stroke="#4D5EFF"/>
<path d="M520 260C508.623 260 497.343 262.233 486.84 266.601C476.317 270.95 466.765 277.337 458.727 285.394C450.69 293.451 444.302 303.003 439.934 313.507C435.585 324.029 433.333 335.29 433.333 346.667C433.333 358.044 431.101 369.323 426.732 379.827C422.383 390.349 415.996 399.901 407.939 407.939C399.882 415.996 390.33 422.364 379.827 426.732C369.304 431.081 358.043 433.333 346.667 433.333C335.29 433.333 324.01 431.101 313.506 426.732C302.984 422.384 293.432 415.996 285.394 407.939C277.356 399.882 270.969 390.33 266.601 379.827C262.252 369.304 260 358.044 260 346.667C260 335.29 257.767 324.01 253.399 313.507C249.05 302.984 242.663 293.432 234.606 285.394C226.549 277.337 216.997 270.969 206.493 266.601C195.971 262.252 184.71 260 173.333 260C161.956 260 150.676 257.767 140.173 253.399C129.65 249.05 120.098 242.663 112.061 234.606C104.023 226.549 97.6357 216.997 93.2675 206.493C88.9186 195.971 86.6665 184.71 86.6665 173.333C86.6665 161.956 88.8992 150.677 93.2675 140.173C97.6163 129.651 104.004 120.099 112.061 112.061C120.118 104.023 129.67 97.6359 140.173 93.2676C150.696 88.9188 161.956 86.6667 173.333 86.6667C184.71 86.6667 195.99 88.8994 206.493 93.2676C217.016 97.6165 226.568 104.004 234.606 112.061C242.663 120.118 249.031 129.67 253.399 140.173C257.748 150.696 260 161.956 260 173.333C260 184.71 262.233 195.99 266.601 206.493C270.95 217.016 277.337 226.568 285.394 234.606C293.451 242.643 303.003 249.031 313.506 253.399C324.029 257.748 335.29 260 346.667 260C358.043 260 369.323 257.767 379.827 253.399C390.349 249.05 399.901 242.663 407.939 234.606C415.996 226.549 422.364 216.997 426.732 206.493C431.081 195.971 433.333 184.71 433.333 173.333C433.333 161.956 435.566 150.677 439.934 140.173C444.283 129.651 450.67 120.099 458.727 112.061C466.784 104.023 476.336 97.6359 486.84 93.2676C497.362 88.9188 508.623 86.6667 520 86.6667" stroke="#4D5EFF" stroke-width="36"/>
<path d="M519.5 162.579L359.301 339.313V161.199V0.5H519.5V162.579Z" fill="#001141" stroke="#4D5EFF"/>
<path d="M165.757 359.301H519.481V519.5H165.757V359.301Z" fill="#001141" stroke="#4D5EFF"/>
</svg>
