<svg width="520" height="520" viewBox="0 0 520 520" fill="none" xmlns="http://www.w3.org/2000/svg">
<path d="M399.917 340.09H179.549V179.891H333.705H333.916L334.064 179.739L351.715 161.528L352.537 160.68H351.356H185.288H185.081L184.934 160.827L160.54 185.27L160.394 185.416V185.623V358.781V359.281H160.894H518.474V519.481H0.519043V119.276L119.057 0.5H518.454V221.314L399.917 340.09Z" fill="#001141" stroke="#4D5EFF"/>
<path d="M0.019043 433.294C11.3731 433.294 22.6303 431.062 33.1125 426.694C43.614 422.345 53.1468 415.957 61.1682 407.9C69.2091 399.843 75.5643 390.291 79.9238 379.788C84.2639 369.265 86.5115 358.005 86.5115 346.628C86.5115 335.251 88.7396 323.971 93.0991 313.468C97.4393 302.945 103.814 293.393 111.855 285.355C119.896 277.318 129.428 270.93 139.91 266.562C150.412 262.213 161.65 259.961 173.004 259.961C184.358 259.961 195.615 262.194 206.097 266.562C216.599 270.911 226.132 277.298 234.153 285.355C242.194 293.412 248.549 302.964 252.909 313.468C257.249 323.99 259.496 335.251 259.496 346.628C259.496 358.005 257.268 369.285 252.909 379.788C248.568 390.311 242.194 399.863 234.153 407.9C226.112 415.957 216.579 422.325 206.097 426.694C195.596 431.042 184.358 433.294 173.004 433.294C161.65 433.294 150.393 435.527 139.91 439.895C129.409 444.244 119.876 450.632 111.855 458.689C103.833 466.746 97.4586 476.298 93.0991 486.801C88.759 497.324 86.5115 508.584 86.5115 519.961" stroke="#4D5EFF" stroke-width="36"/>
<path d="M259.496 519.961C259.496 508.584 261.724 497.304 266.084 486.801C270.424 476.278 276.799 466.726 284.839 458.689C292.88 450.651 302.413 444.264 312.895 439.895C323.397 435.547 334.635 433.294 345.989 433.294C357.343 433.294 368.6 431.062 379.082 426.694C389.584 422.345 399.116 415.957 407.138 407.9C415.179 399.843 421.534 390.291 425.893 379.788C430.234 369.265 432.481 358.005 432.481 346.628C432.481 335.251 430.253 323.971 425.893 313.468C421.553 302.945 415.179 293.393 407.138 285.355C399.097 277.298 389.564 270.93 379.082 266.562C368.581 262.213 357.343 259.961 345.989 259.961C334.635 259.961 323.377 257.728 312.895 253.36C302.394 249.011 292.861 242.624 284.839 234.567C276.818 226.51 270.443 216.958 266.084 206.455C261.744 195.932 259.496 184.671 259.496 173.294C259.496 161.918 257.268 150.638 252.909 140.134C248.568 129.612 242.194 120.06 234.153 112.022C226.112 103.965 216.579 97.597 206.097 93.2288C195.596 88.8799 184.358 86.6278 173.004 86.6278C161.65 86.6278 150.393 88.8605 139.91 93.2288C129.409 97.5776 119.876 103.965 111.855 112.022C103.833 120.079 97.4586 129.631 93.0991 140.134C88.759 150.657 86.5115 161.918 86.5115 173.294C86.5115 184.671 84.2833 195.951 79.9238 206.455C75.5837 216.977 69.2091 226.529 61.1682 234.567C53.1274 242.624 43.5946 248.992 33.1125 253.36C22.6109 257.709 11.3731 259.961 0.019043 259.961" stroke="#4D5EFF" stroke-width="36"/>
<path d="M119.057 0.5H517.732L351.135 160.699H185.288H185.081L184.934 160.846L160.544 185.286L160.541 185.289L0.500103 342.523L0.519358 119.276L119.057 0.5Z" fill="#001141" stroke="#4D5EFF"/>
<path d="M337.466 340.09H179.549V180.606L337.466 340.09Z" fill="#001141" stroke="#4D5EFF"/>
<path d="M328.345 359.301H518.476L519.497 519.5H182.486L328.345 359.301Z" fill="#001141" stroke="#4D5EFF"/>
</svg>
