<svg width="520" height="520" viewBox="0 0 520 520" fill="none" xmlns="http://www.w3.org/2000/svg">
<path d="M400.703 340.09H179.89V179.891H334.357H334.569L334.716 179.739L352.402 161.548L353.227 160.699H352.044H185.642H185.435L185.288 160.846L160.845 185.289L160.699 185.435V185.642V358.801V359.301H161.199H519.499V519.5H0.5V119.277L119.277 0.5H519.48V221.313L400.703 340.09Z" fill="#001141" stroke="#4D5EFF"/>
<path d="M433.333 0C433.333 11.3769 431.1 22.6568 426.732 33.1601C422.383 43.6828 415.995 53.2348 407.938 61.2724C399.881 69.3294 390.329 75.6974 379.826 80.0657C369.303 84.4146 358.043 86.6667 346.666 86.6667C335.289 86.6667 324.009 88.8993 313.506 93.2676C302.983 97.6165 293.431 104.004 285.394 112.061C277.337 120.118 270.969 129.67 266.601 140.173C262.252 150.696 260 161.956 260 173.333C260 184.71 257.767 195.99 253.399 206.493C249.05 217.016 242.662 226.568 234.605 234.606C226.548 242.663 216.996 249.031 206.493 253.399C195.97 257.748 184.71 260 173.333 260C161.956 260 150.676 257.767 140.173 253.399C129.65 249.05 120.098 242.663 112.061 234.606C104.004 226.549 97.6357 216.997 93.2675 206.493C88.9186 195.971 86.6665 184.71 86.6665 173.333C86.6665 161.956 88.8992 150.677 93.2675 140.173C97.6163 129.651 104.004 120.099 112.061 112.061C120.118 104.004 129.67 97.6359 140.173 93.2676C150.696 88.9188 161.956 86.6667 173.333 86.6667C184.71 86.6667 195.99 84.434 206.493 80.0657C217.016 75.7168 226.568 69.3294 234.605 61.2724C242.662 53.2153 249.03 43.6634 253.399 33.1601C257.747 22.6374 260 11.3769 260 0" stroke="#4D5EFF" stroke-width="36"/>
<path d="M260 520C260 508.623 262.232 497.343 266.601 486.84C270.949 476.317 277.337 466.765 285.394 458.728C293.451 450.69 303.003 444.303 313.506 439.934C324.029 435.585 335.289 433.333 346.666 433.333C358.043 433.333 369.323 431.101 379.826 426.732C390.349 422.383 399.901 415.996 407.938 407.939C415.995 399.882 422.363 390.33 426.732 379.827C431.081 369.304 433.333 358.044 433.333 346.667C433.333 335.29 431.1 324.01 426.732 313.506C422.383 302.984 415.995 293.432 407.938 285.394C399.881 277.337 390.329 270.969 379.826 266.601C369.303 262.252 358.043 260 346.666 260C335.289 260 324.009 262.233 313.506 266.601C302.983 270.95 293.431 277.337 285.394 285.394C277.337 293.451 270.969 303.003 266.601 313.506C262.252 324.029 260 335.29 260 346.667C260 358.044 257.767 369.323 253.399 379.827C249.05 390.349 242.662 399.901 234.605 407.939C226.548 415.996 216.996 422.364 206.493 426.732C195.97 431.081 184.71 433.333 173.333 433.333C161.956 433.333 150.676 435.566 140.173 439.934C129.65 444.283 120.098 450.67 112.061 458.728C104.004 466.785 97.6357 476.337 93.2675 486.84C88.9186 497.363 86.6665 508.623 86.6665 520" stroke="#4D5EFF" stroke-width="36"/>
<path d="M334.358 179.891H334.569L334.716 179.739L352.178 161.779L519.088 221.724L400.704 340.09H179.891V179.891H334.358Z" fill="#001141" stroke="#4D5EFF"/>
<path d="M1.2071 519.5L161.406 359.301H341.621L161.009 519.5H1.2071Z" fill="#001141" stroke="#4D5EFF"/>
</svg>
