<svg width="516" height="516" viewBox="0 0 516 516" fill="none" xmlns="http://www.w3.org/2000/svg">
<path d="M395.765 332.98H183.02V183.02H331.788H333.902L335.374 181.504L352.918 163.444L361.16 154.96H349.332H184.212H182.141L180.676 156.424L156.424 180.676L154.96 182.141V184.212V356.04V361.04H159.96H511V511H5V120.235L120.235 5H511V217.745L395.765 332.98ZM12.544 498.456V503.456H17.544H498.456H503.456V498.456V373.584V368.584H498.456H147.416V179.059L179.059 147.416H368.584V158.921L336.941 190.564H195.564H190.564V195.564V320.436V325.436H195.564H390.612H392.683L394.148 323.972L501.992 216.128L503.456 214.663V212.592V17.544V12.544H498.456H125.388H123.317L121.852 14.0085L14.0085 121.852L12.544 123.317V125.388V498.456ZM381.317 297.376H218.624V218.624H346.236H348.307L349.772 217.16L395.18 171.752L396.644 170.287V168.216V124.356V119.356H391.644H169.764H167.693L166.228 120.82L120.82 166.228L119.356 167.693V169.764V391.644V396.644H124.356H475.396V475.396H40.604V134.683L134.683 40.604H475.396V203.297L381.317 297.376ZM48.148 462.852V467.852H53.148H462.852H467.852V462.852V409.188V404.188H462.852H111.812V164.611L164.611 111.812H404.188V173.871L351.403 226.168H231.168H226.168V231.168V284.832V289.832H231.168H375.648H377.719L379.184 288.368L466.388 201.164L467.852 199.699V197.628V53.148V48.148H462.852H140.352H138.281L136.816 49.6125L49.6125 136.816L48.148 138.281V140.352V462.852ZM366.353 261.772H254.228V254.228H361.2H363.271L364.736 252.764L430.784 186.716L432.248 185.251V183.18V88.752V83.752H427.248H154.8H152.729L151.264 85.2164L85.2165 151.264L83.752 152.729V154.8V427.248V432.248H88.752H439.792V439.792H76.208V149.647L149.647 76.208H439.792V188.333L366.353 261.772Z" stroke="#001141" stroke-width="10"/>
</svg>
