<svg width="520" height="520" viewBox="0 0 520 520" fill="none" xmlns="http://www.w3.org/2000/svg">
<path d="M121.151 5H515V156.2H185.64H183.526L182.054 157.716L164.374 175.916L156.132 184.4H167.96H515V335.6H161.2H156.2V340.6V515H5V121.151L121.151 5ZM12.68 502.32V507.32H17.68H143.52H148.52V502.32V327.92H502.32H507.32V322.92V197.08V192.08H502.32H148.52V180.431L180.431 148.52H502.32H507.32V143.52V17.68V12.68H502.32H126.36H124.289L122.824 14.1445L14.1445 122.824L12.68 124.289V126.36V502.32ZM135.711 40.88H479.12V120.32H171.08H169.009L167.544 121.784L121.784 167.544L120.32 169.009V171.08V215.28V220.28H125.32H479.12V299.72H125.32H120.32V304.72V479.12H40.88V135.711L135.711 40.88ZM48.56 466.44V471.44H53.56H107.64H112.64V466.44V292.04H466.44H471.44V287.04V232.96V227.96H466.44H112.64V165.871L165.871 112.64H466.44H471.44V107.64V53.56V48.56H466.44H141.44H139.369L137.904 50.0245L50.0245 137.904L48.56 139.369V141.44V466.44ZM150.791 76.76H443.24V84.44H156H153.929L152.464 85.9044L85.9045 152.464L84.44 153.929V156V251.16V256.16H89.44H443.24V263.84H89.44H84.44V268.84V443.24H76.76V150.791L150.791 76.76Z" stroke="#001141" stroke-width="10"/>
</svg>
