<svg width="520" height="520" viewBox="0 0 520 520" fill="none" xmlns="http://www.w3.org/2000/svg">
<path d="M179.391 160.699H0.5V0.5H519.5V160.699H340.609H340.109V161.199V358.801V359.301H340.609H519.5V519.5H0.5V359.301H179.391H179.891V358.801V161.199V160.699H179.391Z" fill="#001141" stroke="#4D5EFF"/>
<path d="M0.46582 260C11.8428 260 23.1226 257.767 33.6259 253.399C44.1486 249.05 53.7006 242.663 61.7382 234.606C69.7953 226.549 76.1633 216.997 80.5315 206.493C84.8804 195.971 87.1325 184.71 87.1325 173.333C87.1325 161.956 89.3652 150.677 93.7334 140.173C98.0823 129.651 104.47 120.099 112.527 112.061C120.584 104.023 130.136 97.6359 140.639 93.2676C151.162 88.9188 162.422 86.6667 173.799 86.6667C185.176 86.6667 196.456 84.434 206.959 80.0657C217.482 75.7168 227.034 69.3294 235.072 61.2724C243.129 53.2153 249.497 43.6634 253.865 33.1601C258.214 22.6374 260.466 11.3769 260.466 0" stroke="#4D5EFF" stroke-width="36"/>
<path d="M0.46582 433.333C11.8428 433.333 23.1226 431.101 33.6259 426.732C44.1486 422.384 53.7006 415.996 61.7382 407.939C69.7953 399.882 76.1633 390.33 80.5315 379.827C84.8804 369.304 87.1325 358.044 87.1325 346.667C87.1325 335.29 89.3652 324.01 93.7334 313.507C98.0823 302.984 104.47 293.432 112.527 285.394C120.584 277.337 130.136 270.969 140.639 266.601C151.162 262.252 162.422 260 173.799 260C185.176 260 196.456 262.233 206.959 266.601C217.482 270.95 227.034 277.337 235.072 285.394C243.129 293.451 249.497 303.003 253.865 313.507C258.214 324.029 260.466 335.29 260.466 346.667C260.466 358.044 258.233 369.323 253.865 379.827C249.516 390.349 243.129 399.901 235.072 407.939C227.015 415.996 217.463 422.364 206.959 426.732C196.437 431.081 185.176 433.333 173.799 433.333C162.422 433.333 151.142 435.566 140.639 439.934C130.116 444.283 120.564 450.671 112.527 458.728C104.489 466.785 98.1017 476.337 93.7334 486.84C89.3846 497.363 87.1325 508.623 87.1325 520" stroke="#4D5EFF" stroke-width="36"/>
<path d="M260.465 520C260.465 508.623 262.698 497.343 267.066 486.84C271.415 476.317 277.803 466.765 285.86 458.728C293.917 450.671 303.469 444.303 313.972 439.934C324.495 435.585 335.755 433.333 347.132 433.333C358.509 433.333 369.789 431.101 380.292 426.732C390.815 422.383 400.367 415.996 408.404 407.939C416.461 399.882 422.829 390.33 427.198 379.827C431.547 369.304 433.799 358.044 433.799 346.667C433.799 335.29 431.566 324.01 427.198 313.507C422.849 302.984 416.461 293.432 408.404 285.394C400.347 277.337 390.795 270.969 380.292 266.601C369.769 262.252 358.509 260 347.132 260C335.755 260 324.475 257.767 313.972 253.399C303.449 249.05 293.897 242.663 285.86 234.606C277.822 226.549 271.435 216.997 267.066 206.493C262.717 195.971 260.465 184.71 260.465 173.333C260.465 161.956 262.698 150.677 267.066 140.173C271.415 129.651 277.803 120.099 285.86 112.061C293.917 104.004 303.469 97.6359 313.972 93.2676C324.495 88.9188 335.755 86.6667 347.132 86.6667C358.509 86.6667 369.789 84.434 380.292 80.0657C390.815 75.7168 400.367 69.3294 408.404 61.2724C416.461 53.2153 422.829 43.6634 427.198 33.1601C431.547 22.6374 433.799 11.3769 433.799 0" stroke="#4D5EFF" stroke-width="36"/>
<mask id="path-5-inside-1_1747_10678" fill="white">
<path d="M520 0V161.199H340.609V358.801L244.643 447.719L212.376 519.961L0 519.98L0.46595 499.382L81.6771 439.41L104.975 413.647L134.388 358.801H179.41V161.199L355.792 0H520Z"/>
</mask>
<path d="M520 0V161.199H340.609V358.801L244.643 447.719L212.376 519.961L0 519.98L0.46595 499.382L81.6771 439.41L104.975 413.647L134.388 358.801H179.41V161.199L355.792 0H520Z" fill="#001141"/>
<path d="M520 0H521V-1H520V0ZM520 161.199V162.199H521V161.199H520ZM340.609 161.199V160.199H339.609V161.199H340.609ZM340.609 358.801L341.289 359.534L341.609 359.237V358.801H340.609ZM244.643 447.719L243.963 446.986L243.813 447.125L243.73 447.312L244.643 447.719ZM212.376 519.961L212.376 520.961L213.025 520.961L213.289 520.369L212.376 519.961ZM0 519.98L-0.999744 519.958L-1.02288 520.981L9.15053e-05 520.98L0 519.98ZM0.46595 499.382L-0.128095 498.577L-0.522701 498.869L-0.533794 499.359L0.46595 499.382ZM81.6771 439.41L82.2712 440.214L82.3517 440.155L82.4188 440.081L81.6771 439.41ZM104.975 413.647L105.716 414.318L105.798 414.227L105.856 414.119L104.975 413.647ZM134.388 358.801V357.801H133.789L133.506 358.328L134.388 358.801ZM179.41 358.801V359.801H180.41V358.801H179.41ZM179.41 161.199L178.735 160.461L178.41 160.758V161.199H179.41ZM355.792 0V-1H355.403L355.117 -0.738162L355.792 0ZM519 0V161.199H521V0H519ZM520 160.199H340.609V162.199H520V160.199ZM339.609 161.199V358.801H341.609V161.199H339.609ZM339.93 358.067L243.963 446.986L245.323 448.453L341.289 359.534L339.93 358.067ZM243.73 447.312L211.463 519.553L213.289 520.369L245.556 448.127L243.73 447.312ZM212.376 518.961L-9.15053e-05 518.98L9.15053e-05 520.98L212.376 520.961L212.376 518.961ZM0.999744 520.003L1.46569 499.404L-0.533794 499.359L-0.999744 519.958L0.999744 520.003ZM1.05999 500.186L82.2712 440.214L81.0831 438.606L-0.128095 498.577L1.05999 500.186ZM82.4188 440.081L105.716 414.318L104.233 412.976L80.9354 438.739L82.4188 440.081ZM105.856 414.119L135.269 359.273L133.506 358.328L104.093 413.174L105.856 414.119ZM134.388 359.801H179.41V357.801H134.388V359.801ZM180.41 358.801V161.199H178.41V358.801H180.41ZM180.085 161.937L356.466 0.738162L355.117 -0.738162L178.735 160.461L180.085 161.937ZM355.792 1H520V-1H355.792V1Z" fill="#4D5EFF" mask="url(#path-5-inside-1_1747_10678)"/>
</svg>
