<svg width="520" height="520" viewBox="0 0 520 520" fill="none" xmlns="http://www.w3.org/2000/svg">
<path d="M0.5 400.704V179.891H160.699V334.358V334.565L160.846 334.711L185.289 359.154L185.435 359.301H185.642H333.834H334.038L334.183 359.158L359.151 334.715L359.301 334.568V334.358V161.199V160.699H358.801H0.5V0.5H519.5V400.704L400.723 519.481H119.277L0.5 400.704Z" fill="#001141" stroke="#4D5EFF"/>
<path d="M86.6667 0C86.6667 11.3769 88.8993 22.6568 93.2676 33.1601C97.6165 43.6828 104.004 53.2348 112.061 61.2724C120.118 69.3294 129.67 75.6974 140.173 80.0657C150.696 84.4146 161.956 86.6667 173.333 86.6667C184.71 86.6667 195.99 88.8993 206.493 93.2676C217.016 97.6165 226.568 104.004 234.606 112.061C242.663 120.118 249.031 129.67 253.399 140.173C257.748 150.696 260 161.956 260 173.333C260 184.71 257.767 195.99 253.399 206.493C249.05 217.016 242.663 226.568 234.606 234.606C226.549 242.663 216.997 249.031 206.493 253.399C195.971 257.748 184.71 260 173.333 260C161.956 260 150.677 257.767 140.173 253.399C129.651 249.05 120.099 242.663 112.061 234.606C104.023 226.549 97.6359 216.997 93.2676 206.493C88.9188 195.971 86.6667 184.71 86.6667 173.333C86.6667 161.956 84.434 150.677 80.0657 140.173C75.7168 129.651 69.3294 120.099 61.2724 112.061C53.2153 104.004 43.6634 97.6359 33.1601 93.2676C22.6374 88.9188 11.3769 86.6667 0 86.6667" stroke="#4D5EFF" stroke-width="36"/>
<path d="M260 520C260 508.623 262.233 497.343 266.601 486.84C270.95 476.317 277.337 466.765 285.394 458.728C293.451 450.671 303.003 444.303 313.507 439.934C324.029 435.585 335.29 433.333 346.667 433.333C358.044 433.333 369.323 431.101 379.827 426.732C390.349 422.384 399.901 415.996 407.939 407.939C415.996 399.882 422.364 390.33 426.732 379.827C431.081 369.304 433.333 358.044 433.333 346.667C433.333 335.29 431.101 324.01 426.732 313.507C422.383 302.984 415.996 293.432 407.939 285.394C399.882 277.337 390.33 270.969 379.827 266.601C369.304 262.252 358.044 260 346.667 260C335.29 260 324.01 262.233 313.507 266.601C302.984 270.95 293.432 277.337 285.394 285.394C277.357 293.451 270.969 303.003 266.601 313.507C262.252 324.029 260 335.29 260 346.667C260 358.044 257.767 369.323 253.399 379.827C249.05 390.349 242.663 399.901 234.606 407.939C226.549 415.996 216.997 422.364 206.493 426.732C195.971 431.081 184.71 433.333 173.333 433.333C161.956 433.333 150.677 431.101 140.173 426.732C129.651 422.384 120.099 415.996 112.061 407.939C104.004 399.882 97.6359 390.33 93.2676 379.827C88.9188 369.304 86.6667 358.044 86.6667 346.667C86.6667 335.29 84.434 324.01 80.0657 313.507C75.7168 302.984 69.3294 293.432 61.2724 285.394C53.2153 277.337 43.6634 270.969 33.1601 266.601C22.6374 262.252 11.3769 260 0 260" stroke="#4D5EFF" stroke-width="36"/>
<path d="M160.699 333.184L1.24157 179.891H160.699V333.184Z" fill="#001141" stroke="#4D5EFF"/>
<path d="M359.301 161.199V160.701L358.803 160.699L161.406 159.982L1.21093 0.5H519.5V400.704L400.704 519.5H205.048L251.331 442.554L334.183 359.158L334.188 359.153L359.151 334.715L359.301 334.568V334.358V161.199Z" fill="#001141" stroke="#4D5EFF"/>
</svg>
