<svg width="520" height="520" viewBox="0 0 520 520" fill="none" xmlns="http://www.w3.org/2000/svg">
<path d="M398.849 515H5V5H156.2V358.8V363.8H161.2H334.36H336.431L337.896 362.336L362.336 337.896L363.8 336.431V334.36V184.4H515V398.849L398.849 515ZM12.68 502.32V507.32H17.68H393.64H395.711L397.176 505.855L505.856 397.176L507.32 395.711V393.64V197.08V192.08H502.32H376.48H371.48V197.08V339.569L339.569 371.48H148.52V17.68V12.68H143.52H17.68H12.68V17.68V502.32ZM384.289 479.12H40.88V40.88H120.32V394.68V399.68H125.32H348.92H350.991L352.456 398.216L398.216 352.456L399.68 350.991V348.92V220.28H479.12V384.289L384.289 479.12ZM48.56 466.44V471.44H53.56H378.56H380.631L382.096 469.976L469.976 382.096L471.44 380.631V378.56V232.96V227.96H466.44H412.36H407.36V232.96V354.129L354.129 407.36H112.64V53.56V48.56H107.64H53.56H48.56V53.56V466.44ZM369.209 443.24H76.76V76.76H84.44V430.56V435.56H89.44H364H366.071L367.536 434.096L434.096 367.536L435.56 366.071V364V256.16H443.24V369.209L369.209 443.24Z" stroke="#001141" stroke-width="10"/>
</svg>
