<svg width="520" height="520" viewBox="0 0 520 520" fill="none" xmlns="http://www.w3.org/2000/svg">
<path d="M398.849 515H5V363.8H334.36H336.474L337.946 362.284L355.626 344.084L363.868 335.6H352.04H5V121.151L121.151 5H515V156.2H185.64H183.526L182.054 157.716L164.374 175.916L156.132 184.4H167.96H515V398.849L398.849 515ZM12.68 502.32V507.32H17.68H393.64H395.711L397.176 505.856L505.856 397.176L507.32 395.711V393.64V197.08V192.08H502.32H148.52V180.431L180.431 148.52H502.32H507.32V143.52V17.68V12.68H502.32H126.36H124.289L122.824 14.1445L14.1445 122.824L12.68 124.289V126.36V322.92V327.92H17.68H371.48V339.569L339.569 371.48H17.68H12.68V376.48V502.32ZM384.289 479.12H40.88V399.68H348.92H350.991L352.456 398.216L398.216 352.456L399.68 350.991V348.92V304.72V299.72H394.68H40.88V135.711L135.711 40.88H479.12V120.32H171.08H169.009L167.544 121.784L121.784 167.544L120.32 169.009V171.08V215.28V220.28H125.32H479.12V384.289L384.289 479.12ZM48.56 466.44V471.44H53.56H378.56H380.631L382.096 469.976L469.976 382.096L471.44 380.631V378.56V232.96V227.96H466.44H112.64V165.871L165.871 112.64H466.44H471.44V107.64V53.56V48.56H466.44H141.44H139.369L137.904 50.0245L50.0245 137.904L48.56 139.369V141.44V287.04V292.04H53.56H407.36V354.129L354.129 407.36H53.56H48.56V412.36V466.44ZM369.209 443.24H76.76V435.56H364H366.071L367.536 434.096L434.096 367.536L435.56 366.071V364V268.84V263.84H430.56H76.76V150.791L150.791 76.76H443.24V84.44H156H153.929L152.464 85.9044L85.9045 152.464L84.44 153.929V156V251.16V256.16H89.44H443.24V369.209L369.209 443.24Z" stroke="#001141" stroke-width="10"/>
</svg>
