<svg width="520" height="520" viewBox="0 0 520 520" fill="none" xmlns="http://www.w3.org/2000/svg">
<path d="M340.636 359.127H519.5V519.248H0.577637V359.127H179.442H179.942V358.627V161.121V160.621H179.442H161.233H160.733V161.121V339.925H0.577637V0.5H519.5V339.925H359.325V161.121V160.621H358.825H340.636H340.136V161.121V358.627V359.127H340.636Z" fill="#001141" stroke="#4D5EFF"/>
<path d="M0 86.877C11.3752 86.877 22.6534 89.1085 33.1551 93.4747C43.6763 97.8215 53.2268 104.206 61.2632 112.259C69.3191 120.312 75.6861 129.859 80.0537 140.358C84.402 150.875 86.6537 162.13 86.6537 173.502C86.6537 184.873 88.886 196.147 93.2537 206.646C97.6019 217.163 103.988 226.711 112.044 234.744C120.1 242.778 129.651 249.162 140.152 253.528C150.673 257.875 161.932 260.126 173.307 260.126C184.683 260.126 195.961 257.895 206.463 253.528C216.984 249.182 226.534 242.797 234.571 234.744C242.627 226.691 248.994 217.144 253.361 206.646C257.709 196.128 259.961 184.873 259.961 173.502C259.961 162.13 262.193 150.856 266.561 140.358C270.909 129.84 277.296 120.293 285.352 112.259C293.407 104.206 302.958 97.8409 313.46 93.4747C323.981 89.1279 335.24 86.877 346.615 86.877C357.99 86.877 369.268 89.1085 379.77 93.4747C390.291 97.8215 399.842 104.206 407.878 112.259C415.934 120.312 422.301 129.859 426.669 140.358C431.017 150.875 433.269 162.13 433.269 173.502C433.269 184.873 431.036 196.147 426.669 206.646C422.32 217.163 415.934 226.711 407.878 234.744C399.822 242.797 390.272 249.162 379.77 253.528C369.249 257.875 357.99 260.126 346.615 260.126C335.24 260.126 323.961 262.358 313.46 266.724C302.939 271.071 293.388 277.455 285.352 285.508C277.315 293.561 270.929 303.109 266.561 313.607C262.213 324.124 259.961 335.379 259.961 346.751C259.961 358.122 257.729 369.397 253.361 379.895C249.013 390.412 242.627 399.96 234.571 407.994C226.515 416.047 216.964 422.412 206.463 426.778C195.941 431.124 184.683 433.375 173.307 433.375C161.932 433.375 150.654 435.607 140.152 439.973C129.631 444.32 120.081 450.704 112.044 458.757C103.988 466.811 97.6213 476.358 93.2537 486.856C88.9055 497.374 86.6537 508.629 86.6537 520" stroke="#4D5EFF" stroke-width="36"/>
<path d="M519.922 260.126C508.547 260.126 497.269 262.358 486.767 266.724C476.246 271.071 466.695 277.455 458.659 285.508C450.622 293.561 444.236 303.109 439.868 313.607C435.52 324.124 433.268 335.379 433.268 346.751C433.268 358.122 431.036 369.397 426.668 379.895C422.32 390.412 415.934 399.96 407.878 407.993C399.822 416.047 390.272 422.411 379.77 426.778C369.249 431.124 357.99 433.375 346.615 433.375C335.239 433.375 323.961 435.607 313.46 439.973C302.938 444.32 293.388 450.704 285.351 458.757C277.296 466.81 270.929 476.358 266.561 486.856C262.213 497.374 259.961 508.629 259.961 520" stroke="#4D5EFF" stroke-width="36"/>
<path d="M0.577637 519.248V359.127H179.441H179.941V358.627V303.778L244.402 278.289L244.506 278.248L244.582 278.167L271.836 249.253L271.851 249.237L271.865 249.219L340.117 162.564V358.41L280.482 414.272L280.467 414.285L159.455 519.209L0.577637 519.248Z" fill="#001141" stroke="#4D5EFF"/>
<path d="M421.814 272.442L421.862 272.411L421.901 272.371L457.434 235.979L519.403 216.409L519.48 339.925H359.305V312.599L421.814 272.442Z" fill="#001141" stroke="#4D5EFF"/>
<path d="M160.733 339.925H0.577637V1.20692L160.733 161.328V339.925Z" fill="#001141" stroke="#4D5EFF"/>
</svg>
