<svg width="520" height="520" viewBox="0 0 520 520" fill="none" xmlns="http://www.w3.org/2000/svg">
<path d="M5 398.849V5H156.2V334.36V336.431L157.664 337.896L182.104 362.336L183.569 363.8H185.64H358.8H363.8V358.8V5H515V515H121.151L5 398.849ZM122.824 505.855L124.289 507.32H126.36H502.32H507.32V502.32V17.68V12.68H502.32H376.48H371.48V17.68V371.48H180.431L148.52 339.569V17.68V12.68H143.52H17.68H12.68V17.68V393.64V395.711L14.1445 397.176L122.824 505.855ZM399.68 394.68V40.88H479.12V479.12H135.711L40.88 384.289V40.88H120.32V348.92V350.991L121.784 352.456L167.544 398.216L169.009 399.68H171.08H394.68H399.68V394.68ZM137.904 469.976L139.369 471.44H141.44H466.44H471.44V466.44V53.56V48.56H466.44H412.36H407.36V53.56V407.36H165.871L112.64 354.129V53.56V48.56H107.64H53.56H48.56V53.56V378.56V380.631L50.0245 382.096L137.904 469.976ZM435.56 430.56V76.76H443.24V443.24H150.791L76.76 369.209V76.76H84.44V364V366.071L85.9045 367.536L152.464 434.096L153.929 435.56H156H430.56H435.56V430.56Z" stroke="#001141" stroke-width="10"/>
</svg>
