<svg width="520" height="520" viewBox="0 0 520 520" fill="none" xmlns="http://www.w3.org/2000/svg">
<path d="M398.849 515H5V363.8H334.36H336.474L337.946 362.284L355.626 344.084L363.868 335.6H352.04H5V5H156.72V179.4V184.4H161.72H358.8H363.8V179.4V5H515V398.849L398.849 515ZM13.2 502.32V507.32H18.2H393.64H395.711L397.176 505.856L505.856 397.176L507.32 395.711V393.64V17.68V12.68H502.32H376.48H371.48V17.68V192.08H148.52V17.68V12.68H143.52H18.2H13.2V17.68V322.92V327.92H18.2H371.48V339.569L339.569 371.48H18.2H13.2V376.48V502.32ZM384.289 479.12H40.88V399.68H348.92H350.991L352.456 398.216L398.216 352.456L399.68 350.991V348.92V304.72V299.72H394.68H40.88V40.88H120.84V215.28V220.28H125.84H394.68H399.68V215.28V40.88H479.12V384.289L384.289 479.12ZM49.08 466.44V471.44H54.08H379.08H381.16L382.626 469.965L469.986 382.085L471.44 380.622V378.56V53.56V48.56H466.44H412.36H407.36V53.56V227.96H112.64V53.56V48.56H107.64H54.08H49.08V53.56V287.04V292.04H54.08H407.36V354.143L354.635 407.36H54.08H49.08V412.36V466.44ZM369.209 443.24H76.76V435.56H364H366.071L367.536 434.096L434.096 367.536L435.56 366.071V364V268.84V263.84H430.56H76.76V76.76H84.96V251.16V256.16H89.96H430.56H435.56V251.16V76.76H443.24V369.209L369.209 443.24Z" stroke="#001141" stroke-width="10"/>
</svg>
