<svg width="522" height="500" viewBox="0 0 522 500" fill="none" xmlns="http://www.w3.org/2000/svg">
<path d="M425.913 23.6733C462.798 50.2539 480.031 104.623 496.66 158.691C513.59 212.758 530.219 266.523 517.521 311.831C504.823 357.139 462.495 394.593 417.145 429.329C371.492 464.065 323.118 496.385 272.023 499.707C220.928 503.03 167.414 477.658 119.947 443.526C72.4804 409.394 30.7579 366.805 12.013 315.154C-6.73194 263.805 -2.80154 203.092 18.6644 152.045C40.4327 100.697 79.4342 58.7114 124.785 35.1513C170.438 11.2892 222.44 5.55019 277.163 1.92557C331.583 -1.69906 388.725 -2.90728 425.913 23.6733Z" fill="#4D5EFF"/>
</svg>
