<svg width="955" height="913" viewBox="0 0 955 913" fill="none" xmlns="http://www.w3.org/2000/svg">
<path d="M779.208 43.2275C846.689 91.7636 878.218 191.042 908.64 289.769C939.615 388.496 970.037 486.671 946.805 569.403C923.574 652.136 846.136 720.527 763.167 783.955C679.645 847.383 591.145 906.399 497.667 912.466C404.188 918.533 306.285 872.203 219.444 809.878C132.603 747.553 56.2716 669.785 21.9778 575.47C-12.3161 481.707 -5.12542 370.846 34.1466 277.635C73.9717 183.872 145.325 107.207 228.294 64.1863C311.816 20.614 406.954 10.1347 507.07 3.51608C606.633 -3.10248 711.173 -5.30869 779.208 43.2275Z" fill="#001141"/>
</svg>
