<svg width="847" height="788" viewBox="0 0 847 788" fill="none" xmlns="http://www.w3.org/2000/svg">
<path d="M691.088 37.3091C750.938 79.2001 778.901 164.886 805.883 250.096C833.355 335.307 860.336 420.041 839.732 491.446C819.128 562.851 750.448 621.879 676.862 676.623C602.785 731.367 524.293 782.303 441.386 787.539C358.479 792.775 271.647 752.788 194.627 698.997C117.607 645.205 49.9079 578.084 19.4923 496.682C-10.9233 415.756 -4.54579 320.073 30.285 239.624C65.6063 158.698 128.89 92.5291 202.476 55.3984C276.553 17.7918 360.932 8.7471 449.726 3.03469C538.029 -2.67772 630.748 -4.58187 691.088 37.3091Z" fill="#4D5EFF"/>
</svg>
