<svg width="312" height="74" viewBox="0 0 312 74" fill="none" xmlns="http://www.w3.org/2000/svg">
<path d="M0 74H23.0008V48.47H74.196V25.53H23.9653L26.488 22.94H74.196V0H16.9909L0 16.946V74Z" fill="#001141"/>
<path d="M79.268 74H153.464V51.06H102.269V26.418L105.756 22.94H129.499L126.976 25.53H104.866V48.47H136.473L153.464 31.524V0H96.2589L79.268 16.946V74Z" fill="#001141"/>
<path d="M158.536 74H215.741L232.732 57.054V25.53H182.501L185.024 22.94H232.732V0H175.527L158.536 16.946V48.47H208.767L206.244 51.06H158.536V74Z" fill="#001141"/>
<path d="M237.804 74H312V51.06H286.402V22.94H288.999V48.47H312V0H237.804V48.47H260.805V22.94H263.402V51.06H237.804V74Z" fill="#001141"/>
</svg>
