<svg width="198" height="28" viewBox="0 0 198 28" fill="none" xmlns="http://www.w3.org/2000/svg">
<path d="M0 28H28.7731V19.32H8.91966V9.996L10.272 8.68H19.8534V18.34H28.7731V0H6.58904L0 6.412V28Z" fill="#001141"/>
<path d="M30.8283 28H53.0124L59.6014 21.588V0H50.6817V9.66H39.7767V0H30.8283V18.34H50.3077L49.3294 19.32H30.8283V28Z" fill="#001141"/>
<path d="M61.6566 28H70.5763V8.68H80.1577L81.136 9.66H71.5833V18.34H81.136L80.1577 19.32H71.5833V28H83.8407L90.4297 21.588V6.412L83.8407 0H61.6566V28Z" fill="#001141"/>
<path d="M94.5402 27.68H103.46V19H94.5402V27.68Z" fill="#001141"/>
<path d="M107.57 28H129.754L136.343 21.588V0H127.424V18.004L126.071 19.32H116.49V9.996L117.842 8.68H126.417V0H114.159L107.57 6.412V28Z" fill="#001141"/>
<path d="M138.399 28H147.318V8.68H156.9L157.878 9.66H148.325V21.588L154.914 28H167.172V19.32H158.597L157.619 18.34H167.172V6.412L160.583 0H138.399V28Z" fill="#001141"/>
<path d="M191.411 28L198 21.588V9.66H179.154V18.34H188.735L187.728 19.32H178.147V9.996L179.499 8.68H198V0H175.816L169.227 6.412V28H191.411Z" fill="#001141"/>
</svg>
