<svg width="148" height="21" viewBox="0 0 148 21" fill="none" xmlns="http://www.w3.org/2000/svg">
<path d="M0 20.999H21.5072V14.489H6.66722V7.49602L7.67806 6.50902H14.8399V13.754H21.5072V-0.000976562H4.92514L0 4.80802V20.999Z" fill="#EDF5FF"/>
<path d="M23.0434 20.999H39.6254L44.5506 16.19V-0.000976562H37.8833V7.24402H29.7321V-0.000976562H23.0434V13.754H37.6037L36.8725 14.489H23.0434V20.999Z" fill="#EDF5FF"/>
<path d="M46.0868 20.999H52.754V6.50902H59.9159L60.6471 7.24402H53.5068V13.754H60.6471L59.9159 14.489H53.5068V20.999H62.6688L67.594 16.19V4.80802L62.6688 -0.000976562H46.0868V20.999Z" fill="#EDF5FF"/>
<path d="M70.6664 20.759H77.3337V14.249H70.6664V20.759Z" fill="#EDF5FF"/>
<path d="M80.4061 20.999H96.9881L101.913 16.19V-0.000976562H95.246V13.502L94.2352 14.489H87.0733V7.49602L88.0841 6.50902H94.4933V-0.000976562H85.3312L80.4061 4.80802V20.999Z" fill="#EDF5FF"/>
<path d="M103.449 20.999H110.117V6.50902H117.279L118.01 7.24402H110.869V16.19L115.795 20.999H124.957V14.489H118.547L117.816 13.754H124.957V4.80802L120.031 -0.000976562H103.449V20.999Z" fill="#EDF5FF"/>
<path d="M143.075 20.999L148 16.19V7.24402H133.913V13.754H141.075L140.322 14.489H133.16V7.49602L134.171 6.50902H148V-0.000976562H131.418L126.493 4.80802V20.999H143.075Z" fill="#EDF5FF"/>
</svg>
