<svg width="1280" height="172" viewBox="0 0 1280 172" fill="none" xmlns="http://www.w3.org/2000/svg">
<path d="M0 172H172.736V118.68H53.5481V61.404L61.6667 53.32H119.188V112.66H172.736V0H39.5565L0 39.388V172Z" fill="#001141"/>
<path d="M184.544 172H317.723L357.28 132.612V0H303.732V59.34H238.265V0H184.544V112.66H301.486L295.613 118.68H184.544V172Z" fill="#001141"/>
<path d="M369.088 172H422.636V53.32H480.157L486.03 59.34H428.682V112.66H486.03L480.157 118.68H428.682V172H502.267L541.824 132.612V39.388L502.267 0H369.088V172Z" fill="#001141"/>
<path d="M553.632 172H607.18V112.66H726.368V59.34H609.426L615.299 53.32H726.368V0H593.189L553.632 39.388V172Z" fill="#001141"/>
<path d="M738.176 172H910.912V118.68H791.724V61.404L799.843 53.32H855.118L849.245 59.34H797.77V112.66H871.356L910.912 73.272V0H777.733L738.176 39.388V172Z" fill="#001141"/>
<path d="M922.72 172H1055.9L1095.46 132.612V59.34H978.514L984.387 53.32H1095.46V0H962.277L922.72 39.388V112.66H1039.66L1033.79 118.68H922.72V172Z" fill="#001141"/>
<path d="M1107.26 172H1280V118.68H1220.41V53.32H1226.45V112.66H1280V0H1107.26V112.66H1160.81V53.32H1166.86V118.68H1107.26V172Z" fill="#001141"/>
</svg>
