<svg width="40" height="40" viewBox="0 0 40 40" fill="none" xmlns="http://www.w3.org/2000/svg">
<path d="M19.9951 28.1944C20.4058 28.1944 20.7453 28.0618 21.0138 27.7965C21.2824 27.5312 21.4166 27.1933 21.4166 26.7826C21.4166 26.372 21.284 26.0324 21.0187 25.7639C20.7535 25.4953 20.4155 25.3611 20.0048 25.3611C19.5942 25.3611 19.2546 25.4937 18.9861 25.759C18.7176 26.0243 18.5833 26.3622 18.5833 26.7729C18.5833 27.1835 18.7159 27.5231 18.9812 27.7916C19.2465 28.0602 19.5844 28.1944 19.9951 28.1944ZM18.7778 21.8611H21.4166V11.6111H18.7778V21.8611ZM20.0091 36.3888C17.7469 36.3888 15.6204 35.9569 13.6296 35.0932C11.6388 34.2294 9.90307 33.0558 8.42238 31.5723C6.94168 30.0889 5.76963 28.3527 4.90621 26.3636C4.04279 24.3746 3.61108 22.2493 3.61108 19.9878C3.61108 17.7241 4.04297 15.5961 4.90675 13.6039C5.77056 11.6117 6.94417 9.8776 8.42758 8.40154C9.91103 6.92549 11.6473 5.75806 13.6363 4.89925C15.6253 4.04047 17.7506 3.61108 20.0121 3.61108C22.2758 3.61108 24.4039 4.04175 26.3962 4.90308C28.3885 5.76444 30.1226 6.93343 31.5985 8.41004C33.0745 9.88665 34.2419 11.6209 35.1007 13.6129C35.9594 15.6049 36.3888 17.7309 36.3888 19.9908C36.3888 22.253 35.9593 24.3795 35.1001 26.3703C34.241 28.3611 33.072 30.0951 31.5932 31.5724C30.1144 33.0497 28.379 34.2218 26.387 35.0886C24.395 35.9554 22.269 36.3888 20.0091 36.3888ZM20.0129 33.75C23.8237 33.75 27.0659 32.4088 29.7395 29.7266C32.4132 27.0443 33.75 23.7978 33.75 19.987C33.75 16.1762 32.4152 12.934 29.7457 10.2604C27.0761 7.58676 23.8279 6.24996 20.0009 6.24996C16.1993 6.24996 12.9571 7.58472 10.2743 10.2543C7.59139 12.9238 6.24996 16.172 6.24996 19.999C6.24996 23.8006 7.59108 27.0428 10.2733 29.7257C12.9556 32.4085 16.2021 33.75 20.0129 33.75Z" fill="white"/>
</svg>
