<svg width="40" height="40" viewBox="0 0 40 40" fill="none" xmlns="http://www.w3.org/2000/svg">
<path d="M10.1666 23.2222H23.0555V20.5834H10.1666V23.2222ZM10.1666 18H29.8333V15.3612H10.1666V18ZM10.1666 12.7778H29.8333V10.1389H10.1666V12.7778ZM3.61108 36.25V6.22225C3.61108 5.52897 3.87295 4.91583 4.39667 4.38283C4.92039 3.84986 5.53815 3.58337 6.24996 3.58337H33.75C34.4433 3.58337 35.0564 3.84986 35.5894 4.38283C36.1223 4.91583 36.3888 5.52897 36.3888 6.22225V27.1112C36.3888 27.8044 36.1223 28.4176 35.5894 28.9506C35.0564 29.4836 34.4433 29.75 33.75 29.75H10.1111L3.61108 36.25ZM6.24996 29.8751L9.01383 27.1112H33.75V6.22225H6.24996V29.8751Z" fill="white"/>
</svg>
