<svg width="40" height="40" viewBox="0 0 40 40" fill="none" xmlns="http://www.w3.org/2000/svg">
<path d="M20 36.3888C17.6944 36.3888 15.5451 35.9675 13.552 35.125C11.559 34.2824 9.8252 33.1238 8.35067 31.6493C6.87611 30.1747 5.71754 28.4409 4.87496 26.4479C4.03238 24.4548 3.61108 22.3055 3.61108 20C3.61108 17.699 4.03238 15.5532 4.87496 13.5625C5.71754 11.5717 6.87611 9.83907 8.35067 8.36454C9.8252 6.89001 11.559 5.72914 13.552 4.88192C15.5451 4.0347 17.6944 3.61108 20 3.61108C21.9907 3.61108 23.8518 3.92242 25.5833 4.54508C27.3148 5.16778 28.8866 6.03238 30.2986 7.13888L28.3889 9.04163C27.2222 8.15274 25.9352 7.46524 24.5278 6.97913C23.1203 6.49301 21.6111 6.24996 20 6.24996C16.1157 6.24996 12.8529 7.57056 10.2118 10.2118C7.57056 12.8529 6.24996 16.1157 6.24996 20C6.24996 23.8842 7.57056 27.147 10.2118 29.7882C12.8529 32.4294 16.1157 33.75 20 33.75C23.8842 33.75 27.147 32.4294 29.7882 29.7882C32.4294 27.147 33.75 23.8842 33.75 20C33.75 19.2453 33.6944 18.5115 33.5833 17.7985C33.4722 17.0856 33.3125 16.3888 33.1041 15.7083L35.1528 13.6666C35.5555 14.6481 35.8622 15.6666 36.0729 16.7222C36.2835 17.7777 36.3888 18.8703 36.3888 20C36.3888 22.3055 35.9652 24.4548 35.118 26.4479C34.2708 28.4409 33.1099 30.1747 31.6354 31.6493C30.1608 33.1238 28.4282 34.2824 26.4375 35.125C24.4467 35.9675 22.3009 36.3888 20 36.3888ZM17.6111 27.4722L10.8055 20.6388L12.75 18.6944L17.6111 23.5555L34.4444 6.71525L36.4166 8.65967L17.6111 27.4722Z" fill="white"/>
</svg>
