<svg width="20" height="20" viewBox="0 0 20 20" fill="none" xmlns="http://www.w3.org/2000/svg">
<g clip-path="url(#clip0_1173_4181)">
<path d="M17.0876 7.53745L3.33757 2.53745C3.22595 2.49718 3.10516 2.48953 2.98934 2.51538C2.87352 2.54123 2.76746 2.59951 2.68355 2.68342C2.59964 2.76734 2.54135 2.8734 2.5155 2.98922C2.48965 3.10504 2.4973 3.22582 2.53757 3.33745L7.53757 17.0875C7.58124 17.2082 7.66107 17.3126 7.76619 17.3865C7.87132 17.4603 7.99663 17.4999 8.12507 17.5C8.25025 17.5001 8.37257 17.4626 8.47621 17.3924C8.57984 17.3222 8.66001 17.2225 8.70632 17.1062L11.1063 11.1062L17.1063 8.7062C17.2249 8.66122 17.327 8.58123 17.399 8.47685C17.4711 8.37248 17.5097 8.24865 17.5097 8.12183C17.5097 7.995 17.4711 7.87117 17.399 7.7668C17.327 7.66242 17.2249 7.58243 17.1063 7.53745H17.0876ZM10.3938 10.0374L10.1438 10.1374L10.0438 10.3875L8.12507 15.125L4.16882 4.1687L15.1251 8.12495L10.3938 10.0374Z" fill="#001141"/>
</g>
<defs>
<clipPath id="clip0_1173_4181">
<rect width="20" height="20" fill="white"/>
</clipPath>
</defs>
</svg>
