<svg width="12" height="12" viewBox="0 0 12 12" fill="none" xmlns="http://www.w3.org/2000/svg">
<g clip-path="url(#clip0_907_8232)">
<path d="M1.50005 4.86883C1.49882 4.94483 1.52072 5.01941 1.56283 5.08268C1.60495 5.14595 1.6653 5.19493 1.73589 5.22313L5.33645 6.66347L6.77671 10.2642C6.80454 10.3338 6.8526 10.3935 6.9147 10.4355C6.97679 10.4776 7.05006 10.5 7.12505 10.5H7.13112C7.20706 10.4988 7.28082 10.4745 7.34268 10.4304C7.40453 10.3863 7.45156 10.3246 7.47755 10.2532L10.4775 2.00293C10.502 1.93584 10.5067 1.86317 10.4913 1.79347C10.4758 1.72376 10.4408 1.65992 10.3903 1.60944C10.3398 1.55896 10.276 1.52394 10.2063 1.5085C10.1365 1.49307 10.0639 1.49785 9.9968 1.52229L1.7468 4.52229C1.67544 4.54831 1.61366 4.59537 1.5696 4.65724C1.52555 4.71911 1.50129 4.79289 1.50005 4.86883Z" fill="#EDF5FF"/>
</g>
<defs>
<clipPath id="clip0_907_8232">
<rect width="12" height="12" fill="white"/>
</clipPath>
</defs>
</svg>
