<svg width="40" height="40" viewBox="0 0 40 40" fill="none" xmlns="http://www.w3.org/2000/svg">
<path d="M20 33.0903C23.6094 29.8013 26.2837 26.8125 28.023 24.1239C29.7623 21.4353 30.632 19.0611 30.632 17.0014C30.632 13.7775 29.6078 11.1438 27.5594 9.10017C25.5111 7.05656 22.9918 6.03475 20.0015 6.03475C17.0113 6.03475 14.4938 7.05685 12.4491 9.10104C10.4043 11.1453 9.38192 13.7803 9.38192 17.0062C9.38192 19.0673 10.2631 21.441 12.0256 24.1273C13.788 26.8137 16.4462 29.8013 20 33.0903ZM20 36.5625C15.5417 32.7662 12.2176 29.2505 10.0278 26.0153C7.83796 22.7801 6.74304 19.7764 6.74304 17.0042C6.74304 12.8498 8.07583 9.54319 10.7414 7.08425C13.407 4.62533 16.4938 3.39587 20.0018 3.39587C23.5099 3.39587 26.5984 4.62642 29.2674 7.0875C31.9363 9.54858 33.2708 12.8531 33.2708 17.001C33.2708 19.7735 32.1736 22.7778 29.9792 26.0139C27.7847 29.25 24.4583 32.7662 20 36.5625Z" fill="white"/>
<path d="M20 21C22.2091 21 24 19.2091 24 17C24 14.7909 22.2091 13 20 13C17.7909 13 16 14.7909 16 17C16 19.2091 17.7909 21 20 21Z" fill="white"/>
</svg>
